<svg width="70" height="26" viewBox="0 0 70 26" fill="none" xmlns="http://www.w3.org/2000/svg">
<path d="M39.8531 25.668C40.0211 24.276 40.1891 22.902 40.3571 21.546C40.5371 20.19 40.7231 18.714 40.9151 17.118L41.9771 8.658C42.1691 7.086 42.3491 5.622 42.5171 4.266C42.6851 2.91 42.8651 1.488 43.0571 0H46.3331C47.0771 1.824 47.7971 3.588 48.4931 5.292C49.1891 6.984 49.8791 8.67 50.5631 10.35L54.6311 20.322H54.8831L58.9151 10.368C59.5991 8.664 60.2831 6.972 60.9671 5.292C61.6511 3.612 62.3591 1.848 63.0911 0H66.3671C66.5471 1.464 66.7151 2.874 66.8711 4.23C67.0391 5.586 67.2251 7.056 67.4291 8.64L68.4731 17.19C68.6651 18.75 68.8451 20.202 69.0131 21.546C69.1811 22.878 69.3491 24.252 69.5171 25.668H66.4031C66.1271 23.388 65.8631 21.222 65.6111 19.17C65.3591 17.118 65.1251 15.204 64.9091 13.428L63.9731 5.76H63.7391L60.4811 14.022C59.6891 16.026 58.8971 18.036 58.1051 20.052C57.3131 22.056 56.5751 23.928 55.8911 25.668H53.6771C53.2451 24.576 52.7651 23.376 52.2371 22.068C51.7091 20.76 51.1631 19.422 50.5991 18.054C50.0471 16.686 49.5071 15.36 48.9791 14.076L45.6131 5.76H45.3791L44.4431 13.41C44.2271 15.198 43.9931 17.118 43.7411 19.17C43.5011 21.222 43.2431 23.388 42.9671 25.668H39.8531Z" fill="#FF004F"/>
<path d="M0 25.668C0.168 24.276 0.336 22.902 0.504 21.546C0.684 20.19 0.87 18.714 1.062 17.118L2.124 8.658C2.316 7.086 2.496 5.622 2.664 4.266C2.832 2.91 3.012 1.488 3.204 0H6.48C7.224 1.824 7.944 3.588 8.64 5.292C9.336 6.984 10.026 8.67 10.71 10.35L14.778 20.322H15.03L19.062 10.368C19.746 8.664 20.43 6.972 21.114 5.292C21.798 3.612 22.506 1.848 23.238 0H26.514C26.694 1.464 26.862 2.874 27.018 4.23C27.186 5.586 27.372 7.056 27.576 8.64L28.62 17.19C28.812 18.75 28.992 20.202 29.16 21.546C29.328 22.878 29.496 24.252 29.664 25.668H26.55C26.274 23.388 26.01 21.222 25.758 19.17C25.506 17.118 25.272 15.204 25.056 13.428L24.12 5.76H23.886L20.628 14.022C19.836 16.026 19.044 18.036 18.252 20.052C17.46 22.056 16.722 23.928 16.038 25.668H13.824C13.392 24.576 12.912 23.376 12.384 22.068C11.856 20.76 11.31 19.422 10.746 18.054C10.194 16.686 9.654 15.36 9.126 14.076L5.76 5.76H5.526L4.59 13.41C4.374 15.198 4.14 17.118 3.888 19.17C3.648 21.222 3.39 23.388 3.114 25.668H0Z" fill="#FF004F"/>
</svg>
